<svg version="1" xmlns="http://www.w3.org/2000/svg" width="613.333" height="613.333" viewBox="0 0 460.000000 460.000000"><path d="M117.5 19.4c-16.3 4.2-25.6 9.5-37.6 21.6-8.2 8.3-14 17.5-17 27.2-1.4 4.5-1.9 9.1-1.9 18.2 0 19.1 3.2 25.6 12.7 25.6 5.3 0 19.6-2.8 36.1-7.1 16-4.1 32.5-7.5 49.1-9.9 14.4-2 27.8-5.3 46.5-11.4 6.1-2 11.1-3.4 11.3-3.2.5.4-1.9 12-2.7 12.9-.3.4-5.8 1.2-12.1 1.7-39.8 3.5-81.7 17-108.9 35.3-14.4 9.6-18.6 13.1-30.5 25.2-29 29.2-45.5 65.4-48.7 106.6-4.2 53.2 15 97.9 56.2 130.8 40.3 32.3 95.6 49.4 159.5 49.4 56.8-.1 106.1-13.3 145.1-39 44.8-29.4 69-70.3 71-119.8 1.3-31-4.5-58.3-18.2-85.2-23.6-46.5-63.6-77.7-120.4-94.2-12.9-3.7-34.8-7.7-49.4-9.1-6-.5-11.1-1.1-11.2-1.3-.7-.7-3.1-13.7-2.5-13.7.3 0 5.3 1.6 11.1 3.5 16.9 5.7 31.7 9.3 46.9 11.5 15.7 2.3 35.6 6.2 43.5 8.5 9.6 2.9 32.1 7.6 38.8 8.2 7.9.7 10.5-.5 13.4-6.4 1.6-3.2 1.9-6.1 1.9-19.3V70.5L396 63c-4.7-10.2-8.3-15.4-15.8-22.8-16.1-15.8-31.3-22.1-55.7-22.9-11.8-.4-15.4-.2-23.4 1.6-22.6 5.2-38.6 16-54.3 36.8l-7.2 9.5-2.6-7.6c-3-8.5-4.4-10.6-7.2-10.6-2.1 0-6.3 7.8-7.4 13.7-.3 1.8-.9 3.3-1.3 3.3-.3 0-4.6-4.9-9.3-10.9-12.1-15.2-22.7-23.7-36.9-29.6-15.9-6.7-40.3-8.4-57.4-4.1zm145 87.7c18.1 1.9 47.9 8.9 59.2 13.9 2.5 1.1 4.9 2 5.4 2 1.6 0 18.2 8.2 26.7 13.2 13.3 7.8 22.7 15.2 34.2 26.8 24.4 24.7 39.3 54.3 44.8 89 6.1 38-2.9 76.6-24.3 104.8-5.9 7.7-14.4 17.2-15.5 17.2-.3 0-1.4-2.6-2.4-5.8-4.3-13.7-10.1-21.1-23.2-29.8-21.3-14.2-58.6-23.2-106.6-25.9l-10.6-.6-4.9 5.8c-2.6 3.1-5.7 6.8-6.8 8.2-3.8 4.5-5.9 6.1-8.2 6.1-2.7 0-4.3-1.5-13.2-12.3l-6.5-7.8-10.5.6c-27.7 1.6-50.9 5.1-72.6 11-23.3 6.4-41.8 17.4-50.7 30.3-1.8 2.6-4.6 8.7-6.3 13.5l-3.1 8.8-5.4-5.7c-18.5-19.4-30.6-42.7-35.5-68.9-2.1-10.8-2.1-39.9 0-51.8 5.9-33.7 20.2-61.9 44-86.5 6.6-6.9 21.1-18.6 30.1-24.4 29.3-18.8 71.1-31 113.9-33.2 10.2-.5 36.5.3 48 1.5z"/><path d="M206 170.1c-10.7 1.2-30.9 5.6-42 9.1-29.5 9.4-51 21.5-66.6 37.5-7.3 7.5-8.7 8.5-13.9 9.9-16.8 4.3-29.2 18.2-32.5 36.5-2.9 15.5 2.9 32.7 15.1 44.8 10.6 10.5 28.6 14.9 41.4 10.1 10-3.7 29.2-8.8 41.4-11.1 22.7-4.1 29.8-4.9 48.2-5.6l18.6-.6 3 3.4c1.7 1.9 5 5.6 7.2 8.4 2.3 2.7 4.3 5 4.5 5 .2 0 3.1-3.4 6.6-7.5 3.4-4.1 6.9-7.9 7.8-8.4 1.9-1.1 32.5-.1 43.7 1.4 21.8 3 52.6 10 62.4 14.2 10.7 4.6 25.9 3.1 37.2-3.8 22.7-13.8 30.1-46.9 15.2-68.6-6.9-10-14.9-15.7-25.8-18.4-5.3-1.3-7.5-2.5-9.5-4.8-21-25.4-67-46.1-114.5-51.6-10.5-1.2-36.7-1.1-47.5.1zM107.4 234c2.6 1.2 7.2 4.7 10.1 7.7 17.8 18.3 17.7 48.3-.4 64.4-7.2 6.4-12.8 8.3-23.5 7.7-10.5-.5-18.3-4.5-26.1-13.1-20.3-22.4-12.5-58.2 14.8-67.9 7.1-2.5 18.5-2 25.1 1.2zm271.1-1.5c9.1 2.7 17.4 10 22.8 20 3.1 5.8 3.2 6.3 3.2 18.5 0 12-.1 12.8-3.2 19-4.5 9.2-10.7 15.8-18.9 20-6.5 3.3-7.4 3.5-16.9 3.5-9.2 0-10.4-.2-15.3-2.9-6.4-3.6-12.2-10.3-15.9-18.3-2.3-4.9-2.8-7.5-3.1-16.3-.4-10.1-.2-11 2.9-19 2.8-7.1 4.4-9.6 9.9-15.1 10-10.1 21.7-13.3 34.5-9.4z"/></svg>